Coordinates
version=1
nRows=14
nColumns=40
inDegrees=yes

Units are S.I. units (second, meters, Newtons, ...)
Angles are in degrees.

endheader
time	pelvis_tilt	pelvis_list	pelvis_rotation	pelvis_tx	pelvis_ty	pelvis_tz	hip_flexion_r	hip_adduction_r	hip_rotation_r	knee_angle_r	knee_angle_r_beta	ankle_angle_r	subtalar_angle_r	mtp_angle_r	hip_flexion_l	hip_adduction_l	hip_rotation_l	knee_angle_l	knee_angle_l_beta	ankle_angle_l	subtalar_angle_l	mtp_angle_l	lumbar_extension	lumbar_bending	lumbar_rotation	arm_flex_r	arm_add_r	arm_rot_r	elbow_flex_r	pro_sup_r	wrist_flex_r	wrist_dev_r	arm_flex_l	arm_add_l	arm_rot_l	elbow_flex_l	pro_sup_l	wrist_flex_l	wrist_dev_l
     18.29714286	     -3.38393772	     -5.14576372	      5.43192577	      0.84588522	      0.93134394	      0.48059415	      6.93620550	      5.80795984	    -19.08077001	     11.97415309	     11.97415309	     11.73444884	      4.19029929	     -5.85895029	     32.60277355	    -10.08261813	      0.02820922	     27.12474495	     27.12474495	      9.62011671	    -12.75675908	     11.89729335	     -9.32194785	      8.26043348	      5.54996034	     33.65023090	    -18.73297794	     -9.44673043	     51.72935585	     45.86058414	      0.00000000	      0.00000000	     -1.44018792	     -7.84958773	      4.22511362	     24.13325681	     45.83858648	      0.00000000	      0.00000000
     18.30928571	     -3.36683073	     -4.96920218	      5.48266798	      0.84519955	      0.93139933	      0.48043332	      5.99854099	      5.79692683	    -19.15248962	     11.12865072	     11.12865072	     11.88720788	      4.75148666	     -5.89762265	     32.36646512	     -9.75183999	     -0.41677704	     24.01510257	     24.01510257	      9.24222914	     -9.86173326	     11.81509262	     -9.41442147	      8.04183623	      5.03044268	     35.14498735	    -17.89079888	     -9.35557168	     53.71040894	     45.78881657	      0.00000000	      0.00000000	     -2.94175243	     -7.97769208	      4.25086820	     23.49253787	     45.80412714	      0.00000000	      0.00000000
     18.32142857	     -3.57742314	     -5.06718120	      5.55725525	      0.84433117	      0.93084728	      0.48016570	      5.49580258	      6.00387153	    -19.23326732	     10.56915464	     10.56915464	     12.04708540	      5.14701920	     -5.99061499	     32.61509802	     -9.58377380	     -0.52775773	     21.46329699	     21.46329699	      8.77308235	     -7.47641274	     11.78766594	     -9.17380251	      8.15141983	      4.96507141	     36.45745764	    -17.61615377	     -9.32322630	     55.32081636	     45.73443753	      0.00000000	      0.00000000	     -4.19155933	     -7.94052958	      4.25403938	     23.13063537	     45.77777940	      0.00000000	      0.00000000
     18.33357143	     -3.67837273	     -5.11108012	      5.62283578	      0.84363827	      0.93046875	      0.47981111	      4.80909167	      6.17193868	    -19.33033573	      9.92202529	      9.92202529	     12.20420338	      5.60367997	     -6.07428007	     32.73794404	     -9.40873996	     -0.96077013	     19.25413286	     19.25413286	      8.25624093	     -5.21797363	     11.60923308	     -9.07177059	      8.23146339	      4.74786010	     37.68544202	    -17.20360402	     -9.24304220	     57.34322230	     45.66350798	      0.00000000	      0.00000000	     -5.54517462	     -7.97385753	      4.24548863	     22.80107310	     45.75102451	      0.00000000	      0.00000000
     18.34571429	     -3.74469975	     -5.16820446	      5.68420239	      0.84306506	      0.93004899	      0.47941443	      4.04220556	      6.36635745	    -19.46870394	      9.20627557	      9.20627557	     12.34077056	      6.15771594	     -6.15765376	     32.88545269	     -9.27588999	     -1.62560364	     17.51464529	     17.51464529	      7.71485253	     -3.18973365	     11.00175557	     -9.07475828	      8.28696322	      4.48795052	     38.66599213	    -16.78747343	     -9.08358064	     60.10764459	     45.56291334	      0.00000000	      0.00000000	     -6.93054933	     -7.98293889	      4.21818221	     22.72044965	     45.72420548	      0.00000000	      0.00000000
     18.35785714	     -3.93677809	     -5.23060898	      5.73598616	      0.84242609	      0.92949753	      0.47892318	      3.54306384	      6.51353741	    -19.49202052	      8.73579320	      8.73579320	     12.52570405	      6.47073133	     -6.19183380	     33.10331719	     -9.06511925	     -2.14481113	     16.01379018	     16.01379018	      7.12740060	     -1.94588288	     10.78534166	     -8.84148080	      8.33029213	      4.45533185	     39.52051177	    -16.52418583	     -8.97179572	     62.16633104	     45.49045759	      0.00000000	      0.00000000	     -8.05755688	     -7.93421030	      4.21750616	     22.61189704	     45.69883897	      0.00000000	      0.00000000
     18.37000000	     -4.06529603	     -5.32571368	      5.75895171	      0.84193957	      0.92889573	      0.47824565	      2.92480388	      6.68534673	    -19.63774810	      8.19324506	      8.19324506	     12.73577602	      7.06258214	     -6.10819107	     33.34593414	     -8.92430370	     -2.85510428	     15.08700007	     15.08700007	      6.23507637	     -1.12356407	      9.20409973	     -8.83843438	      8.46922537	      4.77242171	     39.47496425	    -16.86083937	     -8.74140993	     66.77841642	     45.32652161	      0.00000000	      0.00000000	     -9.21352138	     -7.94760159	      4.24620136	     23.31946026	     45.65750981	      0.00000000	      0.00000000
     18.38214286	     -4.20039629	     -5.30488569	      5.76363921	      0.84144530	      0.92840247	      0.47746695	      2.42218357	      6.69363309	    -19.59319673	      7.89234021	      7.89234021	     12.98808996	      7.29323958	     -5.98496497	     33.41911276	     -8.61511072	     -3.38365274	     14.31930664	     14.31930664	      5.74264411	     -1.00681301	      9.07008801	     -8.68930063	      8.44510344	      4.60849377	     40.32807619	    -16.37001881	     -8.65951539	     68.80349340	     45.26182872	      0.00000000	      0.00000000	    -10.19546031	     -7.85873286	      4.41355567	     22.99958810	     45.60734643	      0.00000000	      0.00000000
     18.39428571	     -4.34575272	     -5.32935320	      5.74316038	      0.84097562	      0.92775472	      0.47664114	      1.97045488	      6.73398721	    -19.55844641	      7.66904494	      7.66904494	     13.34089503	      7.56152344	     -5.88158202	     33.56781092	     -8.38181272	     -3.92961558	     14.08080030	     14.08080030	      5.32624111	     -1.25158072	      8.98914952	     -8.54925744	      8.44394764	      4.40921759	     41.09744984	    -15.94641252	     -8.52245641	     70.76082732	     45.19686302	      0.00000000	      0.00000000	    -11.11179371	     -7.72941047	      4.50687640	     22.83057070	     45.57108059	      0.00000000	      0.00000000
     18.40642857	     -4.48370071	     -5.33998991	      5.68772865	      0.84064013	      0.92705368	      0.47569239	      1.57681243	      6.69963440	    -19.66656047	      7.62482731	      7.62482731	     13.87863452	      8.08362460	     -5.30172391	     33.61834229	     -8.13106561	     -4.26720719	     14.10222101	     14.10222101	      4.67360472	     -2.00146168	      8.34783352	     -8.48463055	      8.44302715	      4.82171992	     40.97984948	    -16.32593453	     -8.30236044	     74.45445108	     45.08000206	      0.00000000	      0.00000000	    -11.92726153	     -7.72057829	      4.69924015	     23.43393839	     45.51321461	      0.00000000	      0.00000000
     18.41857143	     -4.60082636	     -5.37439411	      5.60664886	      0.84039278	      0.92622668	      0.47471515	      1.18645626	      6.69670292	    -19.58001363	      7.61809775	      7.61809775	     14.27308425	      8.26100881	     -5.21840856	     33.66806336	     -7.95534716	     -4.60148085	     14.57930970	     14.57930970	      4.37266914	     -2.71946516	      8.27788108	     -8.34798748	      8.47506551	      4.61486252	     41.72888961	    -15.79494123	     -8.17074711	     75.98844286	     45.03149697	      0.00000000	      0.00000000	    -12.68812014	     -7.55951527	      4.82374685	     23.18879056	     45.47693599	      0.00000000	      0.00000000
     18.43071429	     -4.75412371	     -5.41320888	      5.51217555	      0.84025842	      0.92526502	      0.47364700	      0.88306096	      6.65446359	    -19.59470499	      7.73511284	      7.73511284	     14.77302768	      8.59494465	     -4.91684519	     33.61442213	     -7.75300626	     -4.63102738	     15.12903297	     15.12903297	      3.88538579	     -3.72333809	      8.12226733	     -8.19309167	      8.49233673	      4.48980135	     41.99843226	    -15.48339258	     -7.84234874	     78.45197393	     44.94876318	      0.00000000	      0.00000000	    -13.48529103	     -7.41132173	      4.93913447	     23.33493044	     45.43908579	      0.00000000	      0.00000000
     18.44285714	     -4.86917307	     -5.42856105	      5.36429690	      0.84036736	      0.92422569	      0.47245630	      0.57766427	      6.54864189	    -19.61736901	      7.98880356	      7.98880356	     15.41220942	      8.97463711	     -4.44665873	     33.40983550	     -7.54567252	     -4.52145849	     15.81793406	     15.81793406	      3.36240757	     -4.82596025	      7.86763355	     -8.07137823	      8.48464851	      4.64358468	     41.99199439	    -15.55262485	     -7.51113160	     81.12986880	     44.86441959	      0.00000000	      0.00000000	    -14.11744720	     -7.33824729	      5.07110829	     23.74658982	     45.40174333	      0.00000000	      0.00000000
     18.45500000	     -4.91824663	     -5.45199830	      5.18978215	      0.84061278	      0.92319353	      0.47122753	      0.22380625	      6.44194763	    -19.63584451	      8.31577304	      8.31577304	     16.12893152	      9.33355700	     -3.72138406	     33.08712679	     -7.37349695	     -4.33630551	     16.64530960	     16.64530960	      2.81765408	     -5.81151280	      7.49272495	     -8.01491219	      8.47415664	      5.01730588	     41.83665753	    -15.82560803	     -7.34620267	     83.62181159	     44.80752340	      0.00000000	      0.00000000	    -14.55631730	     -7.34052110	      5.41054318	     24.18848023	     45.33865160	      0.00000000	      0.00000000
